<svg xmlns="http://www.w3.org/2000/svg" viewBox="0 0 512 512" xmlns:v="https://vecta.io/nano"><circle cx="256" cy="256" r="256" fill="#e16b5a"/><path d="M445.317 427.583L265.725 142.276c-34.34 33.213-40.193 35.893-69.309 77.637-4.992 18.06-6.74 36.416-4.416 48.04-5.112-1.704-10.94-7.772-16.268-15.092-29.74 25.4-24.58 58.608-33.564 105.54l-46.448 37.6 33.08 82.124c37.48 21.512 80.884 33.407 127.2 33.407 56.546-5.641 62.709-6.096 110.093-25.937 34.078-14.269 66.549-44.275 79.224-58.012z" fill="#cc6152"/><path d="M122.092 396l55.028-45.856-10.24-12.288L97.104 396z" fill="#b3b3b3"/><path d="M265.724 142.275c-24.464 21.557-48.724 48.132-69.309 77.641-4.992 18.06-6.74 36.417-4.416 48.041-5.112-1.704-10.942-7.768-16.27-15.088-31.732 27.08-23.73 63.079-35.57 115.143 39.84-8.064 95.84 3.936 119.664-36.844-3.032-.564-6.136-1.531-7.824-3.219 7.908-3.952 17.764-5.954 26.688-7.93 12.989-8.087 25.835-16.94 38.191-26.328z" fill="#e6e6e6"/><path d="M265.599 142.387c-24.422 21.538-48.634 48.067-69.184 77.525-4.992 18.06-6.74 36.425-4.416 48.041-5.112-1.7-10.942-7.772-16.27-15.092-31.732 27.092-23.73 63.09-35.57 115.154 40.957-30.812 101.878-87.906 153.125-143.682z" fill="#f5f5f5"/><g transform="rotate(10.247 438.209 -1401.347)"><path d="M579.425 107.84l51.154 151.416c21.632-16.435 41.739-34.541 58.297-53.268-15.176-8.476-34.224 6.001-39.176 3.525 16.832-16.832 39.299-27.928 55.547-23.9 33.5-46.336 41.776-93.976-4.084-127.336-14.324-10.416-39.548-5.197-68.572 10.967-7.976 16.464-16.919 36.35-22.891 52.27V83.733c-9.965 7.01-20.135 15.172-30.275 24.107z" fill="#e6e6e6"/><path d="M579.3 107.951l27.686 81.947c48.652-52.951 88.591-104.715 94.17-131.613-14.32-10.416-39.548-5.197-68.572 10.967-7.968 16.456-16.911 36.346-22.883 52.262V83.729c-10.006 7.042-20.219 15.243-30.4 24.223z" fill="#f5f5f5"/></g></svg>