<?xml version="1.0" encoding="UTF-8" standalone="no"?>
<!-- Generator: Adobe Illustrator 19.0.0, SVG Export Plug-In . SVG Version: 6.00 Build 0)  -->

<svg
   xmlns:dc="http://purl.org/dc/elements/1.1/"
   xmlns:cc="http://creativecommons.org/ns#"
   xmlns:rdf="http://www.w3.org/1999/02/22-rdf-syntax-ns#"
   xmlns:svg="http://www.w3.org/2000/svg"
   xmlns="http://www.w3.org/2000/svg"
   xmlns:sodipodi="http://sodipodi.sourceforge.net/DTD/sodipodi-0.dtd"
   xmlns:inkscape="http://www.inkscape.org/namespaces/inkscape"
   version="1.1"
   id="Layer_1"
   x="0px"
   y="0px"
   viewBox="0 0 512 512"
   style="enable-background:new 0 0 512 512;"
   xml:space="preserve"
   sodipodi:docname="broquen-quill.svg"
   inkscape:version="0.92.5 (2060ec1f9f, 2020-04-08)"><metadata
   id="metadata945"><rdf:RDF><cc:Work
       rdf:about=""><dc:format>image/svg+xml</dc:format><dc:type
         rdf:resource="http://purl.org/dc/dcmitype/StillImage" /><dc:title></dc:title></cc:Work></rdf:RDF></metadata><defs
   id="defs943" /><sodipodi:namedview
   pagecolor="#ffffff"
   bordercolor="#666666"
   borderopacity="1"
   objecttolerance="10"
   gridtolerance="10"
   guidetolerance="10"
   inkscape:pageopacity="0"
   inkscape:pageshadow="2"
   inkscape:window-width="1920"
   inkscape:window-height="932"
   id="namedview941"
   showgrid="false"
   inkscape:zoom="1.0661844"
   inkscape:cx="333.77196"
   inkscape:cy="133.39141"
   inkscape:window-x="1920"
   inkscape:window-y="27"
   inkscape:window-maximized="1"
   inkscape:current-layer="Layer_1" />
<circle
   style="fill:#E16B5A;"
   cx="256"
   cy="256"
   r="256"
   id="circle900" />
<g
   id="g996"
   transform="translate(322.64586,-53.461669)"><g
     id="g992"><path
       style="fill:#cc6152"
       d="M 122.6708,481.04472 -56.92129,195.73799 c -34.33961,33.21297 -40.19259,35.8927 -69.30859,77.6367 -4.992,18.06 -6.74,36.416 -4.416,48.04 -5.112,-1.704 -10.94,-7.772 -16.268,-15.092 -29.74,25.4 -24.58,58.608 -33.564,105.54 l -46.448,37.60002 33.08,82.124 c 37.48,21.512 80.884,33.40704 127.2,33.40704 56.545799,-5.64099 62.7088887,-6.09643 110.093003,-25.9374 34.077745,-14.26925 66.549207,-44.27509 79.223677,-58.01163 z"
       id="path902"
       inkscape:connector-curvature="0"
       sodipodi:nodetypes="cccccccccsc" /></g></g>
<polygon
   style="fill:#B3B3B3;"
   points="122.092,396 177.12,350.144 166.88,337.856 97.104,396 "
   id="polygon904" />

<g
   id="g989"
   transform="translate(-308.39455,29.79286)"><path
     id="path981"
     d="m 574.11914,112.48242 c -24.46392,21.55695 -48.72444,48.13167 -69.30859,77.64063 -4.992,18.06 -6.74002,36.41701 -4.41602,48.04101 -5.112,-1.704 -10.94153,-7.76789 -16.26953,-15.08789 -31.732,27.08 -23.73031,63.07858 -35.57031,115.14258 39.84,-8.064 95.84006,3.93625 119.66406,-36.84375 -3.032,-0.564 -6.13622,-1.53075 -7.82422,-3.21875 7.908,-3.952 17.7635,-5.95369 26.6875,-7.92969 12.98879,-8.08672 25.83481,-16.94016 38.19141,-26.32812 z"
     style="fill:#e6e6e6"
     inkscape:connector-curvature="0" /><path
     id="path978"
     d="m 573.99414,112.59375 c -24.42155,21.53813 -48.63448,48.06667 -69.18359,77.52539 -4.992,18.06 -6.74002,36.42502 -4.41602,48.04102 -5.112,-1.7 -10.94153,-7.7718 -16.26953,-15.0918 -31.732,27.092 -23.73031,63.0903 -35.57031,115.1543 40.9568,-30.81199 101.87834,-87.90636 153.125,-143.68164 z"
     style="fill:#f5f5f5"
     inkscape:connector-curvature="0" /></g><g
   id="g985"
   transform="rotate(10.24739,438.20909,-1401.3467)"><path
     inkscape:connector-curvature="0"
     id="path906"
     d="m 579.42484,107.83993 51.1543,151.41602 c 21.63245,-16.43533 41.73889,-34.54057 58.29687,-53.26758 -15.176,-8.476 -34.22378,6.00139 -39.17578,3.52539 16.832,-16.832 39.29888,-27.92839 55.54688,-23.90039 33.5,-46.336 41.77601,-93.975938 -4.08399,-127.335938 -14.324,-10.416 -39.54826,-5.197203 -68.57226,10.966797 -7.976,16.464 -16.91863,36.349531 -22.89063,52.269531 V 83.73251 c -9.96534,7.010434 -20.13544,15.17237 -30.27539,24.10742 z"
     style="fill:#e6e6e6" /><path
     inkscape:connector-curvature="0"
     id="path908"
     d="m 579.29984,107.95126 27.68555,81.94727 c 48.65209,-52.95145 88.59069,-104.714524 94.16992,-131.613283 -14.32,-10.416 -39.54827,-5.197203 -68.57227,10.966797 -7.968,16.456 -16.91081,36.345716 -22.88281,52.261716 V 83.728607 c -10.00627,7.041583 -20.21909,15.243446 -30.40039,24.222653 z"
     style="fill:#f5f5f5" /></g>
<g
   id="g910">
</g>
<g
   id="g912">
</g>
<g
   id="g914">
</g>
<g
   id="g916">
</g>
<g
   id="g918">
</g>
<g
   id="g920">
</g>
<g
   id="g922">
</g>
<g
   id="g924">
</g>
<g
   id="g926">
</g>
<g
   id="g928">
</g>
<g
   id="g930">
</g>
<g
   id="g932">
</g>
<g
   id="g934">
</g>
<g
   id="g936">
</g>
<g
   id="g938">
</g>
</svg>