<svg xmlns="http://www.w3.org/2000/svg" viewBox="0 0 135.467 135.467" height="512.001" width="512.001" xmlns:v="https://vecta.io/nano"><circle cx="67.733" cy="67.733" r="67.733" fill="#5ae195"/><path d="M129.451 82.118l-.221-.543-.217-.541-.221-.549-.213-.527-.228-.561-.212-.527-.226-.556-.211-.525-.226-.558-.213-.527-.225-.556-.212-.525-.224-.554-.218-.541-.219-.543-.219-.542-.22-.546-.217-.538-.218-.54-.222-.551-.214-.534-.221-.548-.219-.544-.221-.544-.217-.538-.221-.548-.215-.533-.223-.551-.217-.536-.219-.547-.217-.534-.225-.558-.213-.525-.225-.556-.211-.526-.228-.557-.212-.527-.226-.557-.213-.53-.222-.55-.218-.541-.219-.542-.218-.541-.22-.547-.218-.539-.221-.548-.217-.538-.221-.548-.217-.538-.22-.544-.217-.538-.223-.551-.215-.531-.219-.548-.221-.547-.217-.539-.219-.542-.221-.544-.219-.544-.217-.538-.225-.552-.213-.53-.225-.554-.213-.529-.223-.551-.213-.53-.228-.56-.213-.528-.223-.551-.217-.538-.221-.549-.217-.536-.218-.541-.22-.547-.22-.545-.218-.54-.221-.547-.215-.533-.224-.555-.21-.521-.229-.563-.212-.527-.226-.557-.212-.527-.226-.556-.212-.528-.225-.556-.211-.52-.225-.558-.217-.54c-1.275-3.19-3.611-6.152-7.224-8.781-3.789-2.756-10.464-1.375-18.143 2.902a212.8 212.8 0 0 0-3.938 8.605V35.6l-1.058.728V35.06v-.543-.542-.544-.542c-.353.235-.706.483-1.058.728v-1.269-.544-.542c-8.998 6.331-18.645 15.877-26.348 26.922-1.321 4.778-1.783 9.635-1.168 12.711-1.353-.451-2.895-2.056-4.304-3.993-7.869 6.72-6.503 15.507-8.88 27.924l-12.289 9.948 8.752 21.729a67.39 67.39 0 0 0 33.655 8.963c30.239 0 55.842-19.822 64.548-47.175l-2.83-6.173z" fill="#44cc7e"/><path d="M44.154 89.391l-18.462 15.384h6.611l14.559-12.133z" fill="#b3b3b3"/><path d="M88.9 64.558c4.453-4.453 10.398-7.389 14.697-6.324 8.864-12.26 11.053-24.864-1.081-33.691-3.79-2.756-10.464-1.375-18.143 2.902-2.11 4.356-4.477 9.617-6.057 13.829v-9.996c-8.998 6.33-18.645 15.877-26.348 26.921-1.321 4.778-1.783 9.635-1.168 12.711-1.353-.451-2.895-2.055-4.304-3.992-8.396 7.165-6.279 16.69-9.412 30.465 10.541-2.134 25.358 1.041 31.661-9.748-.802-.149-1.623-.405-2.07-.852 2.092-1.046 4.7-1.575 7.061-2.098 9.453-5.885 18.646-13.275 25.529-21.06-4.015-2.243-9.055 1.588-10.365.932z" fill="#e6e6e6"/><path d="M37.084 97.383c3.133-13.775 1.016-23.3 9.412-30.468 1.41 1.937 2.952 3.543 4.304 3.993-.615-3.073-.152-7.932 1.168-12.711 7.704-11.044 17.35-20.589 26.348-26.921v9.997c1.58-4.211 3.947-9.473 6.055-13.827 7.679-4.277 14.354-5.658 18.143-2.902-3.031 14.613-44.306 56.947-65.43 72.839z" fill="#f5f5f5"/></svg>