<svg viewBox="0 0 512 512" xml:space="preserve" xmlns="http://www.w3.org/2000/svg"><circle cx="256" cy="256" r="256" fill="#dda59c"/><path d="m489.3 310.4-.9-2-.8-2.1-.8-2.1-.8-2-.9-2.1-.8-2-.8-2.1-.8-2-.9-2.1-.8-2c-.3-.7-.5-1.4-.9-2-.2-.8-.5-1.4-.8-2l-.8-2.2-.8-2-.9-2-.8-2.1-.8-2-.8-2.1-.9-2-.8-2.1-.8-2-.8-2.1-.9-2-.8-2.1-.8-2-.9-2.1-.8-2-.8-2.1-.8-2-.9-2.1-.8-2-.8-2.2-.8-2-.9-2-.8-2-.9-2.1-.8-2-.8-2.1-.8-2-.9-2.1-.8-2-.8-2.1-.8-2-.9-2.1-.8-2-.8-2.1-.8-2-.9-2.1-.8-2-.8-2.1-.8-2-.9-2.1-.8-2-.8-2.1-.9-2-.8-2.1-.8-2-.9-2.1-.8-2-.8-2.1-.9-2.1-.8-2-.8-2.1-.8-2-.9-2-.8-2-.8-2.2-.8-2-.9-2-.8-2.1-.8-2-.8-2.1-.9-2-.8-2.1-.8-2-.9-2.1-.8-2-.8-2.1-.9-2.1-.7-2-1-2.1-.7-2-.9-2.1-.8-2-.8-2-.8-2-.9-2.2-.8-2-.8-2-.8-2.1a76.5 76.5 0 0 0-27.3-33.2c-14.4-10.4-39.6-5.2-68.6 11a804.3 804.3 0 0 0-14.9 32.5v-1.6l-4 2.7v-12.9c-1.3.8-2.7 1.7-4 2.7v-8.9c-34 23.9-70.5 60-99.6 101.7-5 18-6.7 36.4-4.4 48-5.1-1.7-11-7.7-16.3-15-29.7 25.4-24.5 58.6-33.5 105.5L95.7 396l33.1 82.1A256.1 256.1 0 0 0 500 333.7l-10.7-23.3z" fill="#e3b2a8"/><path fill="#b3b3b3" d="m122.1 396 55-45.9-10.2-12.2L97.1 396z"/><path d="M336 244c16.8-16.8 39.3-28 55.5-23.9 33.5-46.3 41.8-94-4-127.3-14.4-10.5-39.6-5.2-68.6 11-8 16.4-17 36.3-22.9 52.2v-37.8c-34 24-70.5 60-99.6 101.8-5 18-6.7 36.4-4.4 48-5.1-1.7-11-7.8-16.3-15-31.7 27-23.7 63-35.5 115 39.8-8 95.8 4 119.6-36.8-3-.5-6.1-1.5-7.8-3.2 8-4 17.8-6 26.7-8a447 447 0 0 0 96.5-79.5c-15.2-8.5-34.2 6-39.2 3.5z" fill="#e6e6e6"/><path d="M140.2 368c11.8-52 3.8-88 35.5-115 5.4 7.2 11.2 13.3 16.3 15-2.3-11.6-.6-30 4.4-48A425.5 425.5 0 0 1 296 118.2V156c6-16 15-35.8 22.9-52.3 29-16.1 54.2-21.3 68.6-11C376 148 220 308 140.2 368.2z" fill="#f5f5f5"/></svg>