<svg xmlns="http://www.w3.org/2000/svg" viewBox="0 0 512 512" xmlns:v="https://vecta.io/nano"><circle cx="256" cy="256" r="256" fill="#e16b5a"/><path d="M489.264 310.368l-.836-2.052-.82-2.044-.836-2.076-.804-1.992-.86-2.12-.8-1.992-.856-2.1-.796-1.984-.856-2.108-.804-1.992-.852-2.1-.8-1.984-.848-2.092-.824-2.044-.828-2.052-.828-2.048-.832-2.064-.82-2.032-.824-2.04-.84-2.084-.808-2.02-.836-2.072-.828-2.056-.836-2.056-.82-2.032-.836-2.072-.812-2.016-.844-2.084-.82-2.024-.828-2.068-.82-2.02-.852-2.108-.804-1.984-.852-2.1-.796-1.988-.86-2.104-.8-1.992-.856-2.104-.804-2.004-.84-2.08-.824-2.044-.828-2.048-.824-2.044-.832-2.068-.824-2.036-.836-2.072-.82-2.032-.836-2.072-.82-2.032-.832-2.056-.82-2.032-.844-2.084-.812-2.008-.828-2.072-.836-2.068-.82-2.036-.828-2.048-.836-2.056-.828-2.056-.82-2.032-.852-2.088-.804-2.004-.852-2.092-.804-2-.844-2.084-.804-2.004-.86-2.116-.804-1.996-.844-2.084-.82-2.032-.836-2.076-.82-2.024-.824-2.044-.832-2.068-.832-2.06-.824-2.04-.836-2.068-.812-2.016-.848-2.096-.792-1.968-.864-2.128-.8-1.992-.856-2.104-.8-1.992-.856-2.1-.8-1.996-.852-2.1-.796-1.964-.852-2.108-.82-2.04c-4.82-12.056-13.648-23.252-27.304-33.188-14.32-10.416-39.548-5.196-68.572 10.968-4.9 10.12-10.168 21.532-14.884 32.524v-1.656l-4 2.752v-4.792-2.052-2.048-2.056-2.048c-1.336.888-2.668 1.824-4 2.752v-4.796-2.056-2.048c-34.008 23.928-70.468 60.008-99.584 101.752-4.992 18.06-6.74 36.416-4.416 48.04-5.112-1.704-10.94-7.772-16.268-15.092-29.74 25.4-24.58 58.608-33.564 105.54L95.72 396l33.08 82.124C166.28 499.636 209.684 512 256 512c114.288 0 211.056-74.916 243.96-178.3l-10.696-23.332z" fill="#cc6152"/><path d="M122.092 396l55.028-45.856-10.24-12.288L97.104 396z" fill="#b3b3b3"/><path d="M336 244c16.832-16.832 39.3-27.928 55.548-23.9 33.5-46.336 41.776-93.976-4.084-127.336-14.324-10.416-39.548-5.196-68.572 10.968C310.916 120.196 301.972 140.08 296 156v-37.78c-34.008 23.924-70.468 60.008-99.584 101.748-4.992 18.06-6.74 36.416-4.416 48.04-5.112-1.704-10.94-7.768-16.268-15.088C144 280 152 316 140.16 368.064 180 360 236 372 259.824 331.22c-3.032-.564-6.136-1.532-7.824-3.22 7.908-3.952 17.764-5.952 26.688-7.928 35.728-22.244 70.472-50.172 96.488-79.596C360 232 340.952 246.476 336 244z" fill="#e6e6e6"/><path d="M140.16 368.064C152 316 144 280 175.732 252.908 181.06 260.228 186.888 266.3 192 268c-2.324-11.616-.576-29.98 4.416-48.04 29.116-41.74 65.576-77.816 99.584-101.748v37.784c5.972-15.916 14.916-35.804 22.884-52.26 29.024-16.164 54.252-21.384 68.572-10.968C376 148 220 308 140.16 368.064z" fill="#f5f5f5"/></svg>